<?xml version="1.0" encoding="UTF-8" standalone="no"?>
<!DOCTYPE svg PUBLIC "-//W3C//DTD SVG 1.1//EN" "http://www.w3.org/Graphics/SVG/1.1/DTD/svg11.dtd">
<svg width="100%" height="100%" viewBox="0 0 598 598" version="1.1" xmlns="http://www.w3.org/2000/svg" xmlns:xlink="http://www.w3.org/1999/xlink" xml:space="preserve" xmlns:serif="http://www.serif.com/" style="fill-rule:evenodd;clip-rule:evenodd;stroke-linejoin:round;stroke-miterlimit:2;">
    <g transform="matrix(1,0,0,1,-384.945936,-765.390587)">
        <g transform="matrix(0.637275,0,0,0.637275,-749.893449,-165.480398)">
            <path d="M2575.755,1460.704C2654.502,1460.704 2718.338,1524.541 2718.338,1603.288L2718.338,2255.692C2718.338,2334.438 2654.502,2398.275 2575.755,2398.275L1923.351,2398.275C1844.604,2398.275 1780.767,2334.438 1780.767,2255.692L1780.767,1603.288C1780.767,1524.541 1844.604,1460.704 1923.351,1460.704L2575.755,1460.704Z" style="fill:rgb(200,255,0);"/>
        </g>
        <g transform="matrix(2.336294,0,0,2.336294,-1581.874292,258.930294)">
            <path d="M911.637,304.374C908.215,304.374 904.933,303.014 902.513,300.594C900.093,298.175 898.734,294.893 898.734,291.47L898.734,270.486C898.734,267.709 899.837,265.046 901.8,263.083C903.764,261.12 906.427,260.017 909.203,260.017L978.8,260.017C988.738,260.017 997.514,261.379 1005.128,264.104C1012.742,266.829 1019.114,270.596 1024.243,275.405C1029.372,280.213 1033.259,285.944 1035.904,292.596C1038.549,299.248 1039.871,306.341 1039.871,313.875C1039.871,328.141 1035.423,339.922 1026.527,349.219C1017.631,358.516 1004.767,363.726 987.937,364.848L1038.355,415.454C1040.667,417.776 1041.355,421.261 1040.099,424.287C1038.842,427.313 1035.887,429.285 1032.61,429.285L1001.615,429.285C999.481,429.285 997.44,428.416 995.96,426.878L937.685,366.29L937.685,421.284C937.685,423.406 936.842,425.441 935.341,426.942C933.841,428.442 931.806,429.285 929.683,429.285L906.736,429.285C904.613,429.285 902.578,428.442 901.078,426.942C899.577,425.441 898.734,423.406 898.734,421.284L898.734,333.463C898.734,326.371 904.483,320.622 911.575,320.622L958.938,320.622C960.324,320.622 961.447,321.745 961.447,323.131L961.447,338.329C961.447,342.434 964.775,345.761 968.88,345.761L970.197,345.761C974.302,345.761 977.63,342.434 977.63,338.329L977.63,323.131C977.63,321.745 978.753,320.622 980.139,320.622L995.468,320.622C997.439,320.622 999.33,319.839 1000.724,318.445C1002.117,317.051 1002.901,315.161 1002.901,313.189L1002.901,311.806C1002.901,309.835 1002.117,307.945 1000.724,306.551C999.33,305.157 997.439,304.374 995.468,304.374L980.139,304.374C978.753,304.374 977.63,303.25 977.63,301.864L977.63,286.535C977.63,284.564 976.847,282.674 975.453,281.28C974.059,279.886 972.169,279.103 970.197,279.103L968.88,279.103C966.908,279.103 965.018,279.886 963.624,281.28C962.23,282.674 961.447,284.564 961.447,286.535L961.447,301.864C961.447,303.25 960.324,304.374 958.938,304.374C958.938,304.374 929.326,304.374 911.637,304.374Z"/>
        </g>
    </g>
</svg>
