<?xml version="1.0" encoding="UTF-8" standalone="no"?>
<!DOCTYPE svg PUBLIC "-//W3C//DTD SVG 1.1//EN" "http://www.w3.org/Graphics/SVG/1.1/DTD/svg11.dtd">
<svg width="100%" height="100%" viewBox="0 0 475 112" version="1.1" xmlns="http://www.w3.org/2000/svg" xmlns:xlink="http://www.w3.org/1999/xlink" xml:space="preserve" xmlns:serif="http://www.serif.com/" style="fill-rule:evenodd;clip-rule:evenodd;stroke-linejoin:round;stroke-miterlimit:2;">
    <g transform="matrix(1,0,0,1,-446.634741,-1633.275338)">
        <g transform="matrix(2.911358,0,0,2.911358,-2121.887458,-1676.832505)">
            <path d="M882.242,1174.572L882.242,1139.372L898.892,1139.372C900.959,1139.372 902.784,1139.656 904.367,1140.222C905.95,1140.789 907.275,1141.572 908.342,1142.572C909.409,1143.572 910.217,1144.764 910.767,1146.147C911.317,1147.531 911.592,1149.006 911.592,1150.572C911.592,1153.539 910.667,1155.989 908.817,1157.922C906.967,1159.856 904.292,1160.939 900.792,1161.172L914.142,1174.572L902.942,1174.572L890.342,1161.472L890.342,1174.572L882.242,1174.572ZM903.392,1150.972L903.392,1150.472C903.392,1149.039 902.984,1147.964 902.167,1147.247C901.35,1146.531 900.175,1146.172 898.642,1146.172L890.342,1146.172L890.342,1155.222L898.642,1155.222C900.175,1155.222 901.35,1154.856 902.167,1154.122C902.984,1153.389 903.392,1152.339 903.392,1150.972Z" style="fill-rule:nonzero;"/>
        </g>
        <g transform="matrix(2.911358,0,0,2.911358,-2121.887458,-1676.832505)">
            <path d="M919.942,1139.372L945.642,1139.372L945.642,1146.372L928.042,1146.372L928.042,1153.222L944.042,1153.222L944.042,1160.072L928.042,1160.072L928.042,1167.572L945.642,1167.572L945.642,1174.572L919.942,1174.572L919.942,1139.372Z" style="fill-rule:nonzero;"/>
        </g>
        <g transform="matrix(2.911358,0,0,2.911358,-2121.887458,-1676.832505)">
            <path d="M954.442,1174.572L954.442,1139.372L971.042,1139.372C973.109,1139.372 974.934,1139.664 976.517,1140.247C978.1,1140.831 979.425,1141.622 980.492,1142.622C981.559,1143.622 982.367,1144.814 982.917,1146.197C983.467,1147.581 983.742,1149.072 983.742,1150.672C983.742,1152.272 983.467,1153.764 982.917,1155.147C982.367,1156.531 981.559,1157.722 980.492,1158.722C979.425,1159.722 978.1,1160.514 976.517,1161.097C974.934,1161.681 973.109,1161.972 971.042,1161.972L962.542,1161.972L962.542,1174.572L954.442,1174.572ZM975.542,1150.922L975.542,1150.422C975.542,1149.056 975.134,1148.022 974.317,1147.322C973.5,1146.622 972.325,1146.272 970.792,1146.272L962.542,1146.272L962.542,1155.072L970.792,1155.072C972.325,1155.072 973.5,1154.714 974.317,1153.997C975.134,1153.281 975.542,1152.256 975.542,1150.922Z" style="fill-rule:nonzero;"/>
        </g>
        <g transform="matrix(2.911358,0,0,2.911358,-2121.887458,-1676.832505)">
            <path d="M1003.542,1175.322C1001.309,1175.322 999.267,1175.039 997.417,1174.472C995.567,1173.906 993.984,1173.122 992.667,1172.122C991.35,1171.122 990.334,1169.906 989.617,1168.472C988.9,1167.039 988.542,1165.472 988.542,1163.772L996.742,1163.772C996.742,1165.472 997.359,1166.756 998.592,1167.622C999.825,1168.489 1001.509,1168.922 1003.642,1168.922C1005.809,1168.922 1007.425,1168.514 1008.492,1167.697C1009.559,1166.881 1010.092,1165.872 1010.092,1164.672C1010.092,1163.339 1009.642,1162.447 1008.742,1161.997C1007.842,1161.547 1006.492,1161.189 1004.692,1160.922L1000.292,1160.272C997.092,1159.806 994.459,1158.747 992.392,1157.097C990.325,1155.447 989.292,1152.939 989.292,1149.572C989.292,1148.039 989.617,1146.606 990.267,1145.272C990.917,1143.939 991.842,1142.781 993.042,1141.797C994.242,1140.814 995.725,1140.031 997.492,1139.447C999.259,1138.864 1001.259,1138.572 1003.492,1138.572C1005.792,1138.572 1007.834,1138.864 1009.617,1139.447C1011.4,1140.031 1012.892,1140.814 1014.092,1141.797C1015.292,1142.781 1016.209,1143.931 1016.842,1145.247C1017.475,1146.564 1017.809,1147.956 1017.842,1149.422L1009.642,1149.422C1009.642,1148.122 1009.159,1147.056 1008.192,1146.222C1007.225,1145.389 1005.642,1144.972 1003.442,1144.972C1001.309,1144.972 999.784,1145.372 998.867,1146.172C997.95,1146.972 997.492,1147.872 997.492,1148.872C997.492,1150.206 997.942,1151.131 998.842,1151.647C999.742,1152.164 1001.042,1152.539 1002.742,1152.772L1006.992,1153.372C1008.559,1153.606 1010.034,1153.956 1011.417,1154.422C1012.8,1154.889 1014,1155.531 1015.017,1156.347C1016.034,1157.164 1016.842,1158.197 1017.442,1159.447C1018.042,1160.697 1018.342,1162.206 1018.342,1163.972C1018.342,1165.672 1017.984,1167.222 1017.267,1168.622C1016.55,1170.022 1015.542,1171.214 1014.242,1172.197C1012.942,1173.181 1011.384,1173.947 1009.567,1174.497C1007.75,1175.047 1005.742,1175.322 1003.542,1175.322Z" style="fill-rule:nonzero;"/>
        </g>
        <g transform="matrix(2.911358,0,0,2.911358,-2121.887458,-1676.832505)">
            <path d="M1034.364,1158.389C1032.868,1158.389 1031.464,1158.112 1030.152,1157.558C1028.84,1157.004 1027.703,1156.246 1026.741,1155.284C1025.78,1154.322 1025.022,1153.19 1024.468,1151.888C1023.914,1150.586 1023.637,1149.187 1023.637,1147.691C1023.637,1146.194 1023.914,1144.79 1024.468,1143.478C1025.022,1142.167 1025.78,1141.03 1026.741,1140.068C1027.703,1139.106 1028.84,1138.348 1030.152,1137.794C1031.464,1137.24 1032.868,1136.963 1034.364,1136.963C1035.841,1136.963 1037.235,1137.24 1038.547,1137.794C1039.859,1138.348 1040.996,1139.106 1041.958,1140.068C1042.92,1141.03 1043.682,1142.167 1044.246,1143.478C1044.81,1144.79 1045.091,1146.194 1045.091,1147.691C1045.091,1149.187 1044.81,1150.586 1044.246,1151.888C1043.682,1153.19 1042.92,1154.322 1041.958,1155.284C1040.996,1156.246 1039.859,1157.004 1038.547,1157.558C1037.235,1158.112 1035.841,1158.389 1034.364,1158.389ZM1034.364,1156.057C1035.589,1156.057 1036.711,1155.833 1037.731,1155.386C1038.751,1154.939 1039.621,1154.337 1040.34,1153.579C1041.059,1152.821 1041.623,1151.932 1042.031,1150.912C1042.439,1149.891 1042.643,1148.818 1042.643,1147.691C1042.643,1146.544 1042.439,1145.456 1042.031,1144.426C1041.623,1143.396 1041.059,1142.502 1040.34,1141.744C1039.621,1140.986 1038.751,1140.389 1037.731,1139.951C1036.711,1139.514 1035.589,1139.295 1034.364,1139.295C1033.14,1139.295 1032.018,1139.514 1030.997,1139.951C1029.977,1140.389 1029.103,1140.986 1028.374,1141.744C1027.645,1142.502 1027.082,1143.396 1026.683,1144.426C1026.285,1145.456 1026.086,1146.544 1026.086,1147.691C1026.086,1148.837 1026.285,1149.916 1026.683,1150.926C1027.082,1151.937 1027.645,1152.821 1028.374,1153.579C1029.103,1154.337 1029.977,1154.939 1030.997,1155.386C1032.018,1155.833 1033.14,1156.057 1034.364,1156.057ZM1036.58,1149.556L1039.903,1149.556C1039.65,1150.839 1039.043,1151.859 1038.081,1152.617C1037.119,1153.375 1035.929,1153.754 1034.51,1153.754C1033.616,1153.754 1032.805,1153.598 1032.076,1153.287C1031.347,1152.976 1030.725,1152.549 1030.21,1152.005C1029.695,1151.461 1029.292,1150.819 1029.001,1150.081C1028.709,1149.342 1028.563,1148.546 1028.563,1147.691L1028.563,1147.632C1028.563,1146.777 1028.704,1145.98 1028.986,1145.242C1029.268,1144.504 1029.666,1143.867 1030.181,1143.333C1030.696,1142.798 1031.318,1142.376 1032.047,1142.065C1032.776,1141.754 1033.587,1141.598 1034.481,1141.598C1035.977,1141.598 1037.192,1141.992 1038.125,1142.779C1039.057,1143.566 1039.64,1144.552 1039.874,1145.738L1036.58,1145.738C1036.502,1145.349 1036.283,1145.014 1035.924,1144.732C1035.564,1144.45 1035.083,1144.309 1034.481,1144.309C1033.606,1144.309 1032.941,1144.64 1032.484,1145.3C1032.027,1145.961 1031.799,1146.738 1031.799,1147.632L1031.799,1147.691C1031.799,1148.643 1032.032,1149.44 1032.499,1150.081C1032.965,1150.722 1033.626,1151.043 1034.481,1151.043C1035.083,1151.043 1035.559,1150.902 1035.909,1150.62C1036.259,1150.338 1036.482,1149.984 1036.58,1149.556Z" style="fill-rule:nonzero;"/>
        </g>
    </g>
</svg>
